<svg xmlns:mydata="http://www.w3.org/2000/svg" mydata:contrastcolor="ffffff" mydata:template="Contrast"
    mydata:presentation="2.5" mydata:layouttype="undefined" mydata:specialfontid="undefined" mydata:id1="139"
    mydata:id2="138" mydata:companyname="acquiring" mydata:companytagline="" version="1.1"
    xmlns="http://www.w3.org/2000/svg" xmlns:xlink="http://www.w3.org/1999/xlink" viewBox="0 0 550 470">
    <g fill="rgba(167, 28, 28, 1)" fill-rule="none" stroke="none" stroke-width="1" stroke-linecap="butt" stroke-linejoin="miter"
        stroke-miterlimit="10" stroke-dasharray="" stroke-dashoffset="0" font-family="none" font-weight="none"
        font-size="none" text-anchor="none" style="mix-blend-mode: normal">
        <g
            data-paper-data="{&quot;isGlobalGroup&quot;:true,&quot;bounds&quot;:{&quot;x&quot;:95.95050091299413,&quot;y&quot;:115,&quot;width&quot;:358.09899817401174,&quot;height&quot;:240}}">
            <g data-paper-data="{&quot;isPrimaryText&quot;:true}" fill-rule="nonzero">
                <path
                    d="M130.98579,338.29961h9.23851l-19.32981,-47.61388h-5.54311l-19.40088,47.61388h9.30958l4.54819,-11.51261h16.62932zM118.12293,305.75162l5.40098,13.71564h-10.87302z"
                    data-paper-data="{&quot;glyphName&quot;:&quot;A&quot;,&quot;glyphIndex&quot;:0,&quot;firstGlyphOfWord&quot;:true,&quot;word&quot;:1}">
                </path>
                <path
                    d="M166.09214,339.29453c4.47713,0 10.37556,-1.13705 13.92884,-3.34008l-1.27918,-7.60401c-2.62942,1.56344 -6.82229,3.05582 -11.44154,3.05582c-11.01515,0 -15.63441,-7.17761 -15.63441,-17.05572c0,-8.74106 3.69541,-16.77146 14.99482,-16.77146c4.33499,0 8.31466,1.35024 11.29941,2.98475l1.42131,-7.88827c-3.19795,-1.8477 -8.38573,-2.98475 -13.14712,-2.98475c-14.07097,0 -23.80694,8.31466 -23.80694,25.44144c0,15.35015 9.09638,24.16227 23.66481,24.16227z"
                    data-paper-data="{&quot;glyphName&quot;:&quot;C&quot;,&quot;glyphIndex&quot;:1,&quot;word&quot;:1}">
                </path>
                <path
                    d="M221.45215,355c1.27918,0 4.1218,-0.28426 4.90352,-0.56852v-6.68016h-1.13705c-3.76647,0 -6.39589,-2.41623 -11.86794,-9.59384c9.66491,-3.05582 14.28416,-12.1522 14.28416,-23.73587c0,-13.71564 -6.68016,-24.73079 -22.10137,-24.73079c-14.99482,0 -21.88817,10.80195 -21.88817,24.80186c0,13.21818 6.04057,23.73587 19.61407,24.73079c4.90352,6.96442 11.29941,15.77654 18.19277,15.77654zM205.53348,331.33519c-8.66999,0 -12.64966,-6.1827 -12.64966,-16.84252c0,-10.80195 3.97967,-16.84252 12.64966,-16.84252c8.52786,0 12.86285,5.32991 12.86285,16.77146c0,11.79687 -4.33499,16.91359 -12.86285,16.91359z"
                    data-paper-data="{&quot;glyphName&quot;:&quot;Q&quot;,&quot;glyphIndex&quot;:2,&quot;word&quot;:1}">
                </path>
                <path
                    d="M254.42654,339.29453c11.15728,0 20.04047,-6.1827 20.04047,-17.41104v-31.19775h-9.16745v29.56324c0,5.9695 -3.12688,10.73089 -10.73089,10.73089c-8.2436,0 -10.58876,-5.40098 -10.58876,-11.37048v-28.92365h-9.16745v30.55816c0,12.64966 9.30958,18.05063 19.61407,18.05063z"
                    data-paper-data="{&quot;glyphName&quot;:&quot;U&quot;,&quot;glyphIndex&quot;:3,&quot;word&quot;:1}">
                </path>
                <path d="M284.48724,338.29961h9.09638v-47.61388h-9.09638z"
                    data-paper-data="{&quot;glyphName&quot;:&quot;I&quot;,&quot;glyphIndex&quot;:4,&quot;word&quot;:1}">
                </path>
                <path
                    d="M313.12663,338.29961v-19.54301h2.2741c1.91877,0 3.05582,0.2132 4.40606,2.62942l7.03548,12.64966c1.70557,3.12688 3.97967,4.83245 7.31975,4.83245c1.35024,0 4.33499,-0.07107 5.82737,-0.56852v-5.89844h-1.98983c-1.35024,0 -2.20303,-0.63959 -3.26901,-2.41623l-4.97458,-8.81212c-1.49238,-2.55836 -2.62942,-3.55327 -5.47204,-4.54819c7.8172,-1.42131 11.01515,-7.03548 11.01515,-12.50753c0,-10.44663 -6.96442,-13.43138 -15.63441,-13.43138h-15.70547v47.61388zM313.12663,298.92933h5.11672c4.83245,0 7.8172,0.78172 7.8172,5.54311c0,3.34008 -1.27918,6.46696 -7.24868,6.46696h-5.68524z"
                    data-paper-data="{&quot;glyphName&quot;:&quot;R&quot;,&quot;glyphIndex&quot;:5,&quot;word&quot;:1}">
                </path>
                <path d="M347.66446,338.29961h9.09638v-47.61388h-9.09638z"
                    data-paper-data="{&quot;glyphName&quot;:&quot;I&quot;,&quot;glyphIndex&quot;:6,&quot;word&quot;:1}">
                </path>
                <path
                    d="M367.13641,338.29961h9.02532v-33.75611l23.09628,33.75611h6.53802v-47.61388h-8.95425v28.56833l-19.89834,-28.56833h-9.80704z"
                    data-paper-data="{&quot;glyphName&quot;:&quot;N&quot;,&quot;glyphIndex&quot;:7,&quot;word&quot;:1}">
                </path>
                <path
                    d="M438.41509,339.29453c6.39589,0 12.3654,-1.42131 15.63441,-2.70049v-23.16735h-17.19785v7.95933h8.17253v9.09638c-1.49238,0.56852 -3.83754,0.92385 -5.7563,0.92385c-11.08622,0 -15.91867,-7.67507 -15.91867,-16.274c0,-12.29433 6.25376,-17.55318 15.91867,-17.55318c4.47713,0 9.16745,1.27918 12.08113,3.05582l1.63451,-7.8172c-3.19795,-1.63451 -8.0304,-3.12688 -14.14203,-3.12688c-15.98973,0 -24.80186,9.52278 -24.80186,25.44144c0,15.63441 10.02023,24.16227 24.37546,24.16227z"
                    data-paper-data="{&quot;glyphName&quot;:&quot;G&quot;,&quot;glyphIndex&quot;:8,&quot;lastGlyphOfWord&quot;:true,&quot;word&quot;:1}">
                </path>
            </g>
            <g data-paper-data="{&quot;isIcon&quot;:&quot;true&quot;,&quot;iconType&quot;:&quot;icon&quot;,&quot;rawIconId&quot;:&quot;1371437&quot;,&quot;selectedEffects&quot;:{&quot;container&quot;:&quot;&quot;,&quot;transformation&quot;:&quot;&quot;,&quot;pattern&quot;:&quot;&quot;},&quot;isDetailed&quot;:false,&quot;fillRule&quot;:&quot;evenodd&quot;,&quot;bounds&quot;:{&quot;x&quot;:203.30676602674825,&quot;y&quot;:115,&quot;width&quot;:143.38646794650347,&quot;height&quot;:143.3864679465035},&quot;iconStyle&quot;:&quot;standalone&quot;,&quot;suitableAsStandaloneIcon&quot;:true}"
                fill-rule="evenodd">
                <path
                    d="M215.25624,115h119.48753c6.57068,0 11.94947,5.37878 11.94947,11.94947v119.48753c0,6.57068 -5.37878,11.94947 -11.94947,11.94947h-119.48753c-6.57068,0 -11.94947,-5.37878 -11.94947,-11.94947v-119.48753c0,-6.57068 5.37878,-11.94947 11.94947,-11.94947zM275,246.437l53.76993,-29.87099v-59.74556l-53.76993,-29.87099l-53.76993,29.87099v59.74556l11.94947,6.63879v-59.35304l41.82046,-23.23219l41.82046,23.23219v45.68293l-41.82046,23.23219l-17.92331,-9.95998v-44.8961l17.92331,-9.95998l17.92331,9.95998v17.56305l-11.94947,6.63521v-17.16515l-5.97384,-3.31402l-5.97384,3.31223v30.83526l5.97384,3.3194l29.87278,-16.59161v-31.62209l-29.87278,-16.5934l-29.87278,16.5934v58.96052z"
                    data-paper-data="{&quot;isPathIcon&quot;:true}"></path>
            </g>
        </g>
    </g>






</svg>